<?xml version="1.0" standalone="no"?>
<!DOCTYPE svg PUBLIC "-//W3C//DTD SVG 20010904//EN"
 "http://www.w3.org/TR/2001/REC-SVG-20010904/DTD/svg10.dtd">
<svg version="1.0" xmlns="http://www.w3.org/2000/svg"
 width="558.000000pt" height="558.000000pt" viewBox="0 0 558.000000 558.000000"
 preserveAspectRatio="xMidYMid meet">
<metadata>
Created by potrace 1.14, written by Peter Selinger 2001-2017
</metadata>
<g transform="translate(0.000000,558.000000) scale(0.100000,-0.100000)"
fill="#000000" stroke="none">
<path d="M2619 5515 c-2 -2 -44 -6 -94 -10 -93 -6 -315 -44 -420 -71 -514
-133 -1019 -445 -1365 -844 -36 -41 -67 -77 -70 -80 -20 -18 -145 -195 -196
-277 -129 -206 -228 -424 -295 -648 -31 -102 -35 -118 -44 -157 -2 -13 -9 -43
-15 -68 -11 -49 -17 -83 -26 -145 -3 -22 -8 -51 -10 -65 -26 -169 -26 -552 1
-735 13 -88 27 -163 40 -215 8 -30 16 -68 19 -85 12 -68 121 -378 155 -442 5
-10 24 -49 43 -88 118 -249 336 -550 541 -748 155 -149 388 -326 547 -414 79
-44 209 -112 218 -114 4 -1 25 -10 47 -20 106 -49 378 -140 461 -155 16 -3 45
-9 64 -14 19 -5 51 -11 70 -14 19 -3 62 -10 95 -16 112 -19 210 -25 405 -25
239 0 357 11 548 51 42 9 84 17 92 19 182 37 513 169 712 283 263 151 513 356
708 583 98 113 103 120 140 174 18 28 36 52 39 55 13 11 112 169 153 245 136
249 216 466 284 770 32 141 48 324 49 530 0 218 -12 373 -40 505 -3 14 -8 39
-10 55 -16 90 -95 366 -125 433 -6 12 -14 32 -19 45 -18 47 -98 215 -140 292
-227 419 -588 791 -1006 1037 -253 149 -553 264 -840 323 -89 18 -102 20 -260
39 -97 12 -447 20 -456 11z"/>
</g>
</svg>
